<svg width="32" height="32" viewBox="0 0 32 32" fill="none" xmlns="http://www.w3.org/2000/svg">
<path d="M26.3026 12.7521C26.3026 17.1715 22.7196 20.7543 18.2997 20.7543C13.8798 20.7543 10.2969 17.1715 10.2969 12.7521C10.2969 8.33273 13.8798 4.75 18.2997 4.75C22.7196 4.75 26.3026 8.33273 26.3026 12.7521Z" stroke="#CCCCCC" stroke-width="1.5"/>
<path d="M26.1349 14.5988C24.3221 17.7384 19.8773 18.5658 16.207 16.447C12.5368 14.3281 11.031 10.0653 12.8438 6.92578" stroke="#CCCCCC" stroke-width="1.5"/>
<path d="M10.8086 15.0923L7.78213 23.5001C7.31475 24.7985 7.82108 26.2467 8.99566 26.9711L9.91234 27.5365C11.0869 28.2608 12.6085 28.0632 13.5591 27.0628L19.7145 20.5848" stroke="#CCCCCC" stroke-width="1.5"/>
</svg>
