<svg width="32" height="32" viewBox="0 0 32 32" fill="none" xmlns="http://www.w3.org/2000/svg">
<path d="M27.25 16C27.25 16.2059 27.0816 16.6503 26.5065 17.2719C25.9617 17.8606 25.1473 18.5036 24.1111 19.1C22.0399 20.2922 19.1677 21.25 16 21.25C12.8323 21.25 9.9601 20.2922 7.88887 19.1C6.85273 18.5036 6.03827 17.8606 5.49351 17.2719C4.91837 16.6503 4.75 16.2059 4.75 16C4.75 15.7941 4.91837 15.3497 5.49351 14.7281C6.03827 14.1394 6.85273 13.4964 7.88887 12.9C9.9601 11.7078 12.8323 10.75 16 10.75C19.1677 10.75 22.0399 11.7078 24.1111 12.9C25.1473 13.4964 25.9617 14.1394 26.5065 14.7281C27.0816 15.3497 27.25 15.7941 27.25 16Z" stroke="#98A2B3" stroke-width="1.5"/>
<path d="M16 10V8" stroke="#98A2B3" stroke-width="1.5" stroke-linecap="round"/>
<path d="M11 11L10 8.75" stroke="#98A2B3" stroke-width="1.5" stroke-linecap="round"/>
<path d="M21 11L22 8.75" stroke="#98A2B3" stroke-width="1.5" stroke-linecap="round"/>
<circle cx="16" cy="16" r="5.25" stroke="#98A2B3" stroke-width="1.5"/>
</svg>
