<svg width="32" height="32" viewBox="0 0 32 32" fill="none" xmlns="http://www.w3.org/2000/svg">
<g id="ic_32_info">
<g id="ic">
<circle id="Circle" cx="16" cy="16" r="11.4" stroke="white" stroke-width="1.2"/>
</g>
<g id="i">
<mask id="path-2-outside-1_5699_1628" maskUnits="userSpaceOnUse" x="12" y="8.7998" width="7" height="14" fill="black">
<rect fill="white" x="12" y="8.7998" width="7" height="14"/>
<path d="M14.712 10.8558C14.712 10.5678 14.8133 10.3225 15.016 10.1198C15.2293 9.90647 15.48 9.7998 15.768 9.7998C16.056 9.7998 16.3013 9.90647 16.504 10.1198C16.7173 10.3225 16.824 10.5678 16.824 10.8558C16.824 11.1438 16.7173 11.3945 16.504 11.6078C16.3013 11.8105 16.056 11.9118 15.768 11.9118C15.48 11.9118 15.2293 11.8105 15.016 11.6078C14.8133 11.3945 14.712 11.1438 14.712 10.8558ZM18.408 19.8878L18.68 20.1438V20.3198C18.4773 20.5651 18.2427 20.8211 17.976 21.0878C17.7093 21.3438 17.4213 21.5625 17.112 21.7438C16.8133 21.9145 16.504 21.9998 16.184 21.9998C15.992 21.9998 15.8107 21.9571 15.64 21.8718C15.4693 21.7971 15.3307 21.6905 15.224 21.5518C15.0853 21.3598 14.9947 21.1251 14.952 20.8478C14.9093 20.5705 14.8933 20.1865 14.904 19.6958C14.9147 19.1945 14.92 18.5385 14.92 17.7278V15.8558C14.9093 15.6851 14.8667 15.5145 14.792 15.3438C14.728 15.1625 14.584 15.0718 14.36 15.0718C14.1893 15.0718 14.008 15.1251 13.816 15.2318C13.6347 15.3278 13.448 15.4451 13.256 15.5838L13 15.2318C13.2453 15.0291 13.512 14.8265 13.8 14.6238C14.0987 14.4211 14.4027 14.2505 14.712 14.1118C15.0213 13.9731 15.3307 13.9038 15.64 13.9038C15.8 13.9038 15.9547 13.9358 16.104 13.9998C16.2533 14.0531 16.3653 14.1438 16.44 14.2718C16.504 14.3785 16.552 14.5118 16.584 14.6718C16.616 14.8318 16.632 15.1465 16.632 15.6158C16.632 15.9358 16.6213 16.2611 16.6 16.5918C16.5893 16.9118 16.584 17.2318 16.584 17.5518C16.584 18.2025 16.5787 18.7571 16.568 19.2158C16.568 19.6745 16.616 20.0265 16.712 20.2718C16.808 20.5171 16.9947 20.6398 17.272 20.6398C17.464 20.6398 17.6613 20.5545 17.864 20.3838C18.0667 20.2131 18.248 20.0478 18.408 19.8878Z"/>
</mask>
<path d="M14.712 10.8558C14.712 10.5678 14.8133 10.3225 15.016 10.1198C15.2293 9.90647 15.48 9.7998 15.768 9.7998C16.056 9.7998 16.3013 9.90647 16.504 10.1198C16.7173 10.3225 16.824 10.5678 16.824 10.8558C16.824 11.1438 16.7173 11.3945 16.504 11.6078C16.3013 11.8105 16.056 11.9118 15.768 11.9118C15.48 11.9118 15.2293 11.8105 15.016 11.6078C14.8133 11.3945 14.712 11.1438 14.712 10.8558ZM18.408 19.8878L18.68 20.1438V20.3198C18.4773 20.5651 18.2427 20.8211 17.976 21.0878C17.7093 21.3438 17.4213 21.5625 17.112 21.7438C16.8133 21.9145 16.504 21.9998 16.184 21.9998C15.992 21.9998 15.8107 21.9571 15.64 21.8718C15.4693 21.7971 15.3307 21.6905 15.224 21.5518C15.0853 21.3598 14.9947 21.1251 14.952 20.8478C14.9093 20.5705 14.8933 20.1865 14.904 19.6958C14.9147 19.1945 14.92 18.5385 14.92 17.7278V15.8558C14.9093 15.6851 14.8667 15.5145 14.792 15.3438C14.728 15.1625 14.584 15.0718 14.36 15.0718C14.1893 15.0718 14.008 15.1251 13.816 15.2318C13.6347 15.3278 13.448 15.4451 13.256 15.5838L13 15.2318C13.2453 15.0291 13.512 14.8265 13.8 14.6238C14.0987 14.4211 14.4027 14.2505 14.712 14.1118C15.0213 13.9731 15.3307 13.9038 15.64 13.9038C15.8 13.9038 15.9547 13.9358 16.104 13.9998C16.2533 14.0531 16.3653 14.1438 16.44 14.2718C16.504 14.3785 16.552 14.5118 16.584 14.6718C16.616 14.8318 16.632 15.1465 16.632 15.6158C16.632 15.9358 16.6213 16.2611 16.6 16.5918C16.5893 16.9118 16.584 17.2318 16.584 17.5518C16.584 18.2025 16.5787 18.7571 16.568 19.2158C16.568 19.6745 16.616 20.0265 16.712 20.2718C16.808 20.5171 16.9947 20.6398 17.272 20.6398C17.464 20.6398 17.6613 20.5545 17.864 20.3838C18.0667 20.2131 18.248 20.0478 18.408 19.8878Z" fill="white"/>
<path d="M14.712 10.8558C14.712 10.5678 14.8133 10.3225 15.016 10.1198C15.2293 9.90647 15.48 9.7998 15.768 9.7998C16.056 9.7998 16.3013 9.90647 16.504 10.1198C16.7173 10.3225 16.824 10.5678 16.824 10.8558C16.824 11.1438 16.7173 11.3945 16.504 11.6078C16.3013 11.8105 16.056 11.9118 15.768 11.9118C15.48 11.9118 15.2293 11.8105 15.016 11.6078C14.8133 11.3945 14.712 11.1438 14.712 10.8558ZM18.408 19.8878L18.68 20.1438V20.3198C18.4773 20.5651 18.2427 20.8211 17.976 21.0878C17.7093 21.3438 17.4213 21.5625 17.112 21.7438C16.8133 21.9145 16.504 21.9998 16.184 21.9998C15.992 21.9998 15.8107 21.9571 15.64 21.8718C15.4693 21.7971 15.3307 21.6905 15.224 21.5518C15.0853 21.3598 14.9947 21.1251 14.952 20.8478C14.9093 20.5705 14.8933 20.1865 14.904 19.6958C14.9147 19.1945 14.92 18.5385 14.92 17.7278V15.8558C14.9093 15.6851 14.8667 15.5145 14.792 15.3438C14.728 15.1625 14.584 15.0718 14.36 15.0718C14.1893 15.0718 14.008 15.1251 13.816 15.2318C13.6347 15.3278 13.448 15.4451 13.256 15.5838L13 15.2318C13.2453 15.0291 13.512 14.8265 13.8 14.6238C14.0987 14.4211 14.4027 14.2505 14.712 14.1118C15.0213 13.9731 15.3307 13.9038 15.64 13.9038C15.8 13.9038 15.9547 13.9358 16.104 13.9998C16.2533 14.0531 16.3653 14.1438 16.44 14.2718C16.504 14.3785 16.552 14.5118 16.584 14.6718C16.616 14.8318 16.632 15.1465 16.632 15.6158C16.632 15.9358 16.6213 16.2611 16.6 16.5918C16.5893 16.9118 16.584 17.2318 16.584 17.5518C16.584 18.2025 16.5787 18.7571 16.568 19.2158C16.568 19.6745 16.616 20.0265 16.712 20.2718C16.808 20.5171 16.9947 20.6398 17.272 20.6398C17.464 20.6398 17.6613 20.5545 17.864 20.3838C18.0667 20.2131 18.248 20.0478 18.408 19.8878Z" stroke="white" stroke-width="0.4" mask="url(#path-2-outside-1_5699_1628)"/>
</g>
</g>
</svg>
